<svg width="30" height="30" viewBox="0 0 30 30" fill="none" xmlns="http://www.w3.org/2000/svg">
<rect width="30" height="30" fill="#FEA4A4"/>
<path d="M13.8189 26.8C12.2402 26.8 10.8429 26.64 9.62688 26.32C8.43221 26.0213 7.49354 25.5733 6.81088 24.976C6.14954 24.3573 5.81888 23.6107 5.81888 22.736C5.81888 22.2453 5.94688 21.7973 6.20288 21.392C6.45888 20.9867 6.78954 20.656 7.19488 20.4C7.87754 21.7013 8.78421 22.704 9.91488 23.408C11.0669 24.0907 12.3042 24.432 13.6269 24.432C15.3975 24.432 16.8482 24.1227 17.9789 23.504C19.1309 22.8853 19.7069 21.9573 19.7069 20.72C19.7069 20.08 19.4829 19.5467 19.0349 19.12C18.5869 18.672 17.9895 18.2773 17.2429 17.936C16.4962 17.5947 15.6855 17.2747 14.8109 16.976C13.9362 16.656 13.0509 16.304 12.1549 15.92C11.2802 15.536 10.4695 15.088 9.72288 14.576C8.97621 14.064 8.37888 13.4347 7.93088 12.688C7.48288 11.9413 7.25888 11.0453 7.25888 10C7.25888 8.95467 7.52554 7.99467 8.05888 7.12C8.61354 6.24533 9.39221 5.488 10.3949 4.848C11.3975 4.18667 12.5922 3.67467 13.9789 3.312C15.3655 2.94933 16.9122 2.768 18.6189 2.768C19.9415 2.768 21.1149 2.90667 22.1389 3.184C23.1629 3.44 23.9629 3.80267 24.5389 4.272C25.1362 4.74133 25.4349 5.28533 25.4349 5.904C25.4349 6.82133 25.1362 7.51467 24.5389 7.984C23.9415 8.45333 23.1735 8.688 22.2349 8.688C21.2322 8.688 20.4002 8.38933 19.7389 7.792C19.0989 7.19467 18.6082 6.34133 18.2669 5.232C16.0909 5.488 14.3949 6.01067 13.1789 6.8C11.9842 7.568 11.3869 8.48533 11.3869 9.552C11.3869 10.1493 11.6109 10.6613 12.0589 11.088C12.5069 11.4933 13.1042 11.856 13.8509 12.176C14.5975 12.496 15.4082 12.816 16.2829 13.136C17.1575 13.456 18.0322 13.808 18.9069 14.192C19.8029 14.5547 20.6242 14.992 21.3709 15.504C22.1175 16.016 22.7149 16.6347 23.1629 17.36C23.6109 18.0853 23.8349 18.96 23.8349 19.984C23.8349 20.9013 23.6215 21.776 23.1949 22.608C22.7682 23.4187 22.1282 24.144 21.2749 24.784C20.4429 25.4027 19.3975 25.8933 18.1389 26.256C16.9015 26.6187 15.4615 26.8 13.8189 26.8Z" fill="white"/>
</svg>
