<svg width="865" height="393" viewBox="0 0 865 393" fill="none" xmlns="http://www.w3.org/2000/svg">
<path fill-rule="evenodd" clip-rule="evenodd" d="M453.957 0.249158C571.902 -3.98676 657.382 46.6504 733.603 86.4668C801.598 121.987 843.407 163.292 854.472 209.47C867.178 262.505 884.14 323.277 799.488 361.454C714.416 399.82 575.449 394.154 453.957 390.097C344.126 386.429 238.769 372.559 157.191 340.005C71.1617 305.675 -11.5033 260.251 1.32111 209.47C13.5807 160.926 139.983 140.42 216.531 105.037C296.876 67.8995 337.794 4.42109 453.957 0.249158Z" fill="#2E9BFF"/>
<path d="M356.746 177.648H344.842C345.226 179.568 345.738 184.048 345.738 186.736C345.738 193.52 345.738 206.192 345.738 210.544C345.738 216.688 345.738 260.336 345.738 267.376C345.61 270.704 344.202 272.24 340.746 272.24C337.29 272.24 331.53 271.728 325.898 270.704L326.794 280.944C332.042 281.456 339.594 281.84 345.098 281.84C352.778 281.84 355.978 278.384 355.978 271.6C355.978 262.512 355.978 221.04 355.978 210.544C355.978 204.4 355.978 193.648 355.978 186.864C355.978 184.048 356.49 179.44 356.746 177.648ZM299.274 199.28V210.032C302.602 209.776 306.314 209.648 310.154 209.648C317.962 209.648 382.346 209.648 390.026 209.648C393.098 209.648 396.938 209.648 400.266 209.904V199.28C397.194 199.792 392.842 199.92 389.898 199.92C382.346 199.92 317.706 199.92 310.154 199.92C306.058 199.92 302.858 199.664 299.274 199.28ZM328.714 229.36L319.754 225.008C314.762 235.376 303.753 250.608 295.306 258.544L304.01 264.56C311.306 256.624 323.21 240.368 328.714 229.36ZM382.218 225.136L373.514 229.744C380.17 237.808 389.77 253.808 394.89 263.792L404.362 258.544C399.242 249.328 389.002 233.328 382.218 225.136ZM425.866 222.576V235.12C429.962 234.864 436.746 234.608 443.786 234.608C453.258 234.608 504.33 234.608 514.058 234.608C519.69 234.608 525.066 234.992 527.754 235.12V222.576C524.81 222.832 520.33 223.344 513.93 223.344C504.458 223.344 453.13 223.344 443.786 223.344C436.49 223.344 429.833 222.96 425.866 222.576ZM603.879 182.64L591.079 179.952C590.695 183.408 590.183 186.352 588.519 192.24C584.679 205.808 569.831 252.144 563.431 266.864L574.951 266.48C580.455 253.552 595.303 207.6 599.399 194.544C601.191 189.04 602.599 185.712 603.879 182.64ZM628.199 225.52L618.471 229.744C627.687 241.904 640.743 268.528 645.863 282.352L656.487 277.616C651.239 264.432 637.159 238.576 628.199 225.52ZM558.439 263.792C554.727 264.048 550.247 264.176 546.407 264.048L548.455 275.824C552.039 275.312 555.878 274.8 559.079 274.544C577.127 272.752 624.231 267.632 642.023 265.328L639.207 255.344C622.695 257.776 576.871 262.896 558.439 263.792Z" fill="white"/>
</svg>
