<svg width="865" height="393" viewBox="0 0 865 393" fill="none" xmlns="http://www.w3.org/2000/svg">
<path fill-rule="evenodd" clip-rule="evenodd" d="M453.957 0.249158C571.902 -3.98676 657.382 46.6504 733.603 86.4668C801.598 121.987 843.407 163.292 854.472 209.47C867.178 262.505 884.14 323.277 799.488 361.454C714.416 399.82 575.449 394.154 453.957 390.097C344.126 386.429 238.769 372.559 157.191 340.005C71.1617 305.675 -11.5033 260.251 1.32111 209.47C13.5807 160.926 139.983 140.42 216.531 105.037C296.876 67.8995 337.794 4.42109 453.957 0.249158Z" fill="#2E9BFF"/>
<path d="M271.06 196.65C271.17 199.4 271.17 202.7 271.17 205.23C271.17 209.52 271.17 254.95 271.17 259.46C271.17 263.31 270.95 271.34 270.95 272.77H280.3C280.3 271.34 280.19 264.3 280.19 260.67C280.19 256.16 280.19 205.56 280.19 205.56H340.25C340.25 205.56 340.25 256.6 340.25 260.67C340.25 265.29 340.14 271.56 340.03 272.77H349.6C349.49 271.56 349.38 262.98 349.38 259.46C349.38 255.28 349.38 210.4 349.38 205.23C349.38 202.48 349.38 199.4 349.6 196.76C346.19 196.87 342.23 196.87 339.92 196.87C334.53 196.87 286.68 196.87 280.85 196.87C278.21 196.87 275.35 196.87 271.06 196.65ZM343.88 257.92H275.79V266.5H343.88V257.92ZM449.15 184L443.21 186.53C446.18 190.71 449.92 197.31 452.12 201.82L458.06 199.07C455.86 194.67 451.9 187.96 449.15 184ZM461.14 179.6L455.42 182.13C458.5 186.2 462.02 192.47 464.44 197.2L470.38 194.56C468.29 190.49 464.11 183.67 461.14 179.6ZM456.41 205.89L449.15 201.49C447.28 202.26 444.86 202.59 441.89 202.59C438.48 202.59 411.31 202.59 406.8 202.59L403.28 210.51H444.09C441.78 220.52 435.07 234.71 426.49 244.83C416.48 256.49 402.84 266.5 382.6 272.44L390.52 279.59C411.2 272 424.4 261.88 434.41 249.67C444.09 237.79 450.91 222.83 453.88 211.83C454.43 210.07 455.53 207.54 456.41 205.89ZM419.56 189.28L409.44 185.98C408.78 188.73 407.13 192.8 406.03 194.67C401.19 204.57 390.41 220.52 371.38 231.85L379.08 237.57C396.68 225.8 408.23 210.07 414.72 197.97C415.82 195.88 417.8 192.14 419.56 189.28ZM484.46 232.29L488.75 240.87C506.46 235.37 523.95 227.34 536.05 219.86C548.92 211.83 560.47 202.59 569.93 192.8L562.56 185.87C554.97 195.11 543.97 204.57 532.42 211.83C520.21 219.42 503.49 227.23 484.46 232.29ZM530.66 216.34V263.75C530.66 267.82 530.33 273.32 530 275.41H540.89C540.34 273.32 540.12 267.82 540.12 263.75V213.48L530.66 216.34ZM609.97 191.48L603.59 198.19C611.84 203.58 625.48 215.46 631.09 221.18L637.91 214.14C631.86 208.09 617.67 196.65 609.97 191.48ZM600.51 265.18L606.23 274.2C624.6 270.79 638.46 263.97 649.57 257.04C666.18 246.59 678.94 231.63 686.42 217.99L681.14 208.53C674.76 222.17 661.45 238.45 644.4 249.12C633.95 255.61 619.65 262.32 600.51 265.18Z" fill="white"/>
</svg>
