<svg width="865" height="393" viewBox="0 0 865 393" fill="none" xmlns="http://www.w3.org/2000/svg">
<path fill-rule="evenodd" clip-rule="evenodd" d="M453.957 0.249158C571.902 -3.98676 657.382 46.6504 733.603 86.4668C801.598 121.987 843.407 163.292 854.472 209.47C867.178 262.505 884.14 323.277 799.488 361.454C714.416 399.82 575.449 394.154 453.957 390.097C344.126 386.429 238.769 372.559 157.191 340.005C71.1617 305.675 -11.5033 260.251 1.32111 209.47C13.5807 160.926 139.983 140.42 216.531 105.037C296.876 67.8995 337.794 4.42109 453.957 0.249158Z" fill="#2E9BFF"/>
<path d="M254.277 204.8L247.577 201.6C246.477 202.1 243.377 202.5 241.377 202.5C234.377 202.5 209.277 202.5 204.577 202.5C201.277 202.5 198.077 202.2 195.077 201.9V210.8C198.177 210.5 200.877 210.4 204.677 210.4C209.377 210.4 235.277 210.4 243.977 210.4C243.777 217.8 238.977 248.2 237.277 256.9H246.277C247.677 248.1 252.377 218.2 253.477 208.1C253.577 207.3 253.877 205.8 254.277 204.8ZM183.877 254.2V263.4C186.877 263.1 189.877 262.9 192.677 262.9H260.077C262.177 262.9 265.777 263 268.477 263.4V254.2C265.877 254.5 263.177 254.8 260.077 254.8H192.677C189.877 254.8 186.777 254.7 183.877 254.2ZM286.077 225.7V235.5C289.277 235.3 294.577 235.1 300.077 235.1C307.477 235.1 347.377 235.1 354.977 235.1C359.377 235.1 363.577 235.4 365.677 235.5V225.7C363.377 225.9 359.877 226.3 354.877 226.3C347.477 226.3 307.377 226.3 300.077 226.3C294.377 226.3 289.177 226 286.077 225.7ZM453.623 192.8L448.823 194.3C450.823 198.1 453.123 204.1 454.523 208.3L459.523 206.6C458.123 202.6 455.523 196.4 453.623 192.8ZM463.623 189.7L458.723 191.2C460.823 195 463.023 200.7 464.623 205.2L469.623 203.5C468.123 199.5 465.523 193.4 463.623 189.7ZM444.123 224.9V201.2C444.123 197.3 444.523 194 444.623 193H435.623C435.823 194 436.123 197.3 436.123 201.2V225.5C436.123 253.5 427.023 262.1 408.823 269.1L415.623 275.4C438.423 265.2 444.123 251.5 444.123 224.9ZM408.123 193.7H399.223C399.523 195.9 399.623 198.8 399.623 200.9V237.6C399.623 241.4 399.323 245.6 399.223 246.6H408.023C407.923 245.6 407.623 241.2 407.623 237.6V200.9C407.623 197.4 408.023 194.6 408.123 193.7ZM378.823 213.1V221.7C380.023 221.6 384.523 221.4 388.923 221.4H455.123C459.523 221.4 463.223 221.5 464.323 221.7V213.2C462.923 213.4 459.523 213.7 455.123 213.7H388.923C384.623 213.7 379.723 213.2 378.823 213.1ZM484.123 225.7V235.5C487.323 235.3 492.623 235.1 498.123 235.1C505.523 235.1 545.423 235.1 553.023 235.1C557.423 235.1 561.623 235.4 563.723 235.5V225.7C561.423 225.9 557.923 226.3 552.923 226.3C545.523 226.3 505.423 226.3 498.123 226.3C492.423 226.3 487.223 226 484.123 225.7ZM605.423 212.9V219.4H642.523V212.9H605.423ZM580.523 268.4V274.7H667.623V268.4H580.523ZM586.523 188.9V195.2H616.123V188.9H586.523ZM613.723 188.9V190.3C607.523 206.2 591.323 220.2 576.623 226.4C578.123 227.7 580.123 230.3 581.123 231.9C597.023 224.5 613.723 210.2 621.223 191L616.423 188.5L615.023 188.9H613.723ZM630.623 185.3L624.323 187.4C632.823 206.4 648.123 222.7 665.823 230.7C667.023 228.7 669.123 226 670.923 224.5C653.623 217.8 638.323 202.3 630.623 185.3ZM583.823 203C589.023 206.2 595.023 211.2 598.023 214.7L602.223 210.1C599.323 206.5 593.123 201.9 587.823 198.9L583.823 203ZM650.723 185.9C646.723 190.3 639.623 196.4 634.523 200.1L639.123 203.7C644.323 200.2 651.223 194.8 656.423 189.9L650.723 185.9ZM661.923 197.7C657.723 202.2 650.323 208.3 644.923 211.9L649.523 215.5C655.023 212.1 662.223 206.7 667.523 201.7L661.923 197.7ZM603.623 233.8H644.123V247H603.623V233.8ZM596.223 227.6V253.2H651.823V227.6H596.223ZM602.023 254.8C604.723 259.2 607.223 265.3 608.223 269.2L615.323 267C614.323 263.1 611.723 257.2 608.923 252.9L602.023 254.8ZM639.223 252.6C637.623 257 634.423 263.5 631.923 267.4L638.323 269.3C640.823 265.4 643.823 259.9 646.523 254.6L639.223 252.6ZM763.323 228.9C760.523 233.3 755.323 239.4 751.623 243.2L756.423 246.5C760.323 242.9 765.223 237.6 769.223 232.7L763.323 228.9ZM718.623 233.9C722.823 238 727.423 243.8 729.323 247.6L734.823 244C732.723 240.1 728.023 234.6 723.723 230.6L718.623 233.9ZM721.723 189.1V195.4H754.823V222.6H761.823V189.1H721.723ZM723.723 204V210.1H758.823V204H723.723ZM716.523 218.8V225.4H770.023V218.8H716.523ZM739.023 221.9V269C739.023 270.2 738.723 270.5 737.623 270.5C736.423 270.5 733.023 270.6 729.223 270.4C730.123 272.4 731.023 275.2 731.323 277.1C736.823 277.1 740.523 277 742.923 275.9C745.423 274.8 746.023 272.8 746.023 269.2V221.9H739.023ZM714.423 263.9L717.923 270.1C723.823 266.1 730.723 261.1 737.123 256.2L734.823 250.4C727.323 255.6 719.623 260.8 714.423 263.9ZM745.723 226.4L741.423 231.4C744.523 243.7 751.823 261.8 766.923 271C768.023 269.1 770.323 266.2 771.823 264.8C756.423 256.7 748.723 239.7 745.723 226.4ZM684.823 209.8V216.3H713.323V209.8H684.823ZM679.423 226.9V233.5H716.023V226.9H679.423ZM681.723 240.1C683.623 246.2 685.223 254 685.323 259.2L690.923 257.8C690.523 252.6 688.923 244.9 686.923 238.8L681.723 240.1ZM678.523 267L680.023 274C690.023 271.9 703.323 268.9 716.223 266.2L715.623 259.8C702.023 262.6 687.923 265.4 678.523 267ZM709.523 237.9C708.623 243.2 706.823 251.1 705.323 256L710.223 257.4C711.923 252.7 713.623 245.5 715.323 239.4L709.523 237.9ZM695.123 212.2V267.8L701.723 266.7V212.2H695.123ZM694.823 185.1C691.423 193.1 685.023 203.3 675.923 210.9C677.323 211.9 679.523 214.1 680.623 215.6C690.523 206.9 697.023 196.3 700.923 188.6V186.7H698.723V185.1H694.823ZM696.023 185.1V190.4H697.423C703.223 195.4 710.023 203.7 713.423 208.8L718.423 203.1C714.923 198.1 707.523 190.4 701.623 185.1H696.023Z" fill="white"/>
</svg>
