<svg width="865" height="393" viewBox="0 0 865 393" fill="none" xmlns="http://www.w3.org/2000/svg">
<path fill-rule="evenodd" clip-rule="evenodd" d="M453.957 0.249158C571.902 -3.98676 657.382 46.6504 733.603 86.4668C801.598 121.987 843.407 163.292 854.472 209.47C867.178 262.505 884.14 323.277 799.488 361.454C714.416 399.82 575.449 394.154 453.957 390.097C344.126 386.429 238.769 372.559 157.191 340.005C71.1617 305.675 -11.5033 260.251 1.32111 209.47C13.5807 160.926 139.983 140.42 216.531 105.037C296.876 67.8995 337.794 4.42109 453.957 0.249158Z" fill="#FEA4A4"/>
<path d="M185.088 281.2C178.773 281.2 173.184 280.56 168.32 279.28C163.541 278.085 159.787 276.293 157.056 273.904C154.411 271.429 153.088 268.443 153.088 264.944C153.088 262.981 153.6 261.189 154.624 259.568C155.648 257.947 156.971 256.624 158.592 255.6C161.323 260.805 164.949 264.816 169.472 267.632C174.08 270.363 179.029 271.728 184.32 271.728C191.403 271.728 197.205 270.491 201.728 268.016C206.336 265.541 208.64 261.829 208.64 256.88C208.64 254.32 207.744 252.187 205.952 250.48C204.16 248.688 201.771 247.109 198.784 245.744C195.797 244.379 192.555 243.099 189.056 241.904C185.557 240.624 182.016 239.216 178.432 237.68C174.933 236.144 171.691 234.352 168.704 232.304C165.717 230.256 163.328 227.739 161.536 224.752C159.744 221.765 158.848 218.181 158.848 214C158.848 209.819 159.915 205.979 162.048 202.48C164.267 198.981 167.381 195.952 171.392 193.392C175.403 190.747 180.181 188.699 185.728 187.248C191.275 185.797 197.461 185.072 204.288 185.072C209.579 185.072 214.272 185.627 218.368 186.736C222.464 187.76 225.664 189.211 227.968 191.088C230.357 192.965 231.552 195.141 231.552 197.616C231.552 201.285 230.357 204.059 227.968 205.936C225.579 207.813 222.507 208.752 218.752 208.752C214.741 208.752 211.413 207.557 208.768 205.168C206.208 202.779 204.245 199.365 202.88 194.928C194.176 195.952 187.392 198.043 182.528 201.2C177.749 204.272 175.36 207.941 175.36 212.208C175.36 214.597 176.256 216.645 178.048 218.352C179.84 219.973 182.229 221.424 185.216 222.704C188.203 223.984 191.445 225.264 194.944 226.544C198.443 227.824 201.941 229.232 205.44 230.768C209.024 232.219 212.309 233.968 215.296 236.016C218.283 238.064 220.672 240.539 222.464 243.44C224.256 246.341 225.152 249.84 225.152 253.936C225.152 257.605 224.299 261.104 222.592 264.432C220.885 267.675 218.325 270.576 214.912 273.136C211.584 275.611 207.403 277.573 202.368 279.024C197.419 280.475 191.659 281.2 185.088 281.2ZM257.641 281.2C254.569 281.2 252.35 280.389 250.985 278.768C249.62 277.232 248.937 275.013 248.937 272.112C248.937 270.235 249.15 267.632 249.577 264.304C250.089 260.976 250.729 257.179 251.497 252.912C252.265 248.645 253.118 244.208 254.057 239.6C255.081 234.907 256.105 230.384 257.129 226.032C258.153 221.595 259.134 217.584 260.073 214L254.313 207.6C256.446 205.723 258.878 204.272 261.609 203.248C264.425 202.139 266.9 201.584 269.033 201.584C271.593 201.584 273.385 202.096 274.409 203.12C275.433 204.144 275.945 205.979 275.945 208.624C275.945 210.843 275.561 213.36 274.793 216.176C274.11 218.907 273.172 221.509 271.977 223.984L273.257 224.624C277.78 216.005 282.644 209.947 287.849 206.448C293.14 202.949 298.772 201.2 304.745 201.2C310.292 201.2 314.217 202.693 316.521 205.68C318.91 208.667 320.105 212.549 320.105 217.328C320.105 218.267 320.02 219.333 319.849 220.528C319.764 221.637 319.55 222.789 319.209 223.984L320.489 224.624C325.182 216.005 330.174 209.947 335.465 206.448C340.841 202.949 346.601 201.2 352.745 201.2C358.292 201.2 362.43 202.565 365.161 205.296C367.892 208.027 369.257 212.336 369.257 218.224C369.257 222.149 368.788 226.245 367.849 230.512C366.996 234.779 365.972 239.173 364.777 243.696C363.582 248.219 362.516 252.784 361.577 257.392C360.724 261.915 360.297 266.437 360.297 270.96C360.297 272.325 360.425 273.605 360.681 274.8C360.937 275.995 361.321 276.933 361.833 277.616C359.358 280.005 356.713 281.2 353.897 281.2C350.825 281.2 348.564 280.389 347.113 278.768C345.748 277.147 345.065 274.843 345.065 271.856C345.065 268.357 345.449 264.432 346.217 260.08C347.07 255.643 348.052 251.077 349.161 246.384C350.27 241.691 351.209 237.253 351.977 233.072C352.83 228.891 353.257 225.349 353.257 222.448C353.257 219.205 352.66 216.688 351.465 214.896C350.27 213.019 348.222 212.08 345.321 212.08C341.822 212.08 338.11 213.531 334.185 216.432C330.345 219.248 326.761 223.259 323.433 228.464C320.105 233.669 317.374 239.899 315.241 247.152C313.193 254.32 312.169 262.256 312.169 270.96C312.169 272.325 312.297 273.605 312.553 274.8C312.809 275.995 313.236 276.933 313.833 277.616C311.358 280.005 308.67 281.2 305.769 281.2C302.697 281.2 300.478 280.389 299.113 278.768C297.748 277.147 297.065 274.843 297.065 271.856C297.065 268.357 297.449 264.432 298.217 260.08C299.07 255.643 300.052 251.077 301.161 246.384C302.27 241.691 303.209 237.253 303.977 233.072C304.83 228.891 305.257 225.349 305.257 222.448C305.257 219.205 304.617 216.688 303.337 214.896C302.142 213.019 300.137 212.08 297.321 212.08C293.737 212.08 290.025 213.531 286.185 216.432C282.345 219.248 278.761 223.259 275.433 228.464C272.105 233.669 269.374 239.899 267.241 247.152C265.193 254.32 264.169 262.256 264.169 270.96C264.169 272.325 264.297 273.605 264.553 274.8C264.809 275.995 265.193 276.933 265.705 277.616C263.23 280.005 260.542 281.2 257.641 281.2ZM419.713 281.2C413.484 281.2 408.065 279.835 403.457 277.104C398.849 274.288 395.265 270.363 392.705 265.328C390.23 260.293 388.993 254.363 388.993 247.536C388.993 240.709 390.06 234.48 392.193 228.848C394.412 223.131 397.526 218.224 401.537 214.128C405.548 210.032 410.284 206.875 415.745 204.656C421.206 202.352 427.222 201.2 433.793 201.2C435.585 201.2 437.249 201.285 438.785 201.456C440.406 201.541 442.028 201.797 443.649 202.224C444.246 203.077 444.63 204.016 444.801 205.04C445.057 205.979 445.228 207.045 445.313 208.24C436.609 208.24 429.228 209.989 423.169 213.488C417.196 216.987 412.63 221.765 409.473 227.824C406.401 233.797 404.865 240.667 404.865 248.432C404.865 255.941 406.273 261.872 409.089 266.224C411.905 270.491 415.916 272.624 421.121 272.624C426.241 272.624 430.806 271.216 434.817 268.4C438.828 265.499 442.113 261.488 444.673 256.368C447.318 251.163 448.982 245.104 449.665 238.192C446.166 235.973 443.606 233.541 441.985 230.896C440.449 228.165 439.681 225.051 439.681 221.552C439.681 219.333 440.108 217.371 440.961 215.664C441.9 213.957 443.137 212.635 444.673 211.696C446.209 210.672 447.958 210.16 449.921 210.16C453.846 210.16 456.918 211.909 459.137 215.408C461.356 218.907 462.465 223.771 462.465 230C462.465 237.168 461.356 243.867 459.137 250.096C457.004 256.24 453.974 261.659 450.049 266.352C446.124 270.96 441.558 274.587 436.353 277.232C431.233 279.877 425.686 281.2 419.713 281.2ZM512.463 281.2C506.234 281.2 500.815 279.835 496.207 277.104C491.599 274.288 488.015 270.363 485.455 265.328C482.98 260.293 481.743 254.363 481.743 247.536C481.743 240.709 482.81 234.48 484.943 228.848C487.162 223.131 490.276 218.224 494.287 214.128C498.298 210.032 503.034 206.875 508.495 204.656C513.956 202.352 519.972 201.2 526.543 201.2C528.335 201.2 529.999 201.285 531.535 201.456C533.156 201.541 534.778 201.797 536.399 202.224C536.996 203.077 537.38 204.016 537.551 205.04C537.807 205.979 537.978 207.045 538.063 208.24C529.359 208.24 521.978 209.989 515.919 213.488C509.946 216.987 505.38 221.765 502.223 227.824C499.151 233.797 497.615 240.667 497.615 248.432C497.615 255.941 499.023 261.872 501.839 266.224C504.655 270.491 508.666 272.624 513.871 272.624C518.991 272.624 523.556 271.216 527.567 268.4C531.578 265.499 534.863 261.488 537.423 256.368C540.068 251.163 541.732 245.104 542.415 238.192C538.916 235.973 536.356 233.541 534.735 230.896C533.199 228.165 532.431 225.051 532.431 221.552C532.431 219.333 532.858 217.371 533.711 215.664C534.65 213.957 535.887 212.635 537.423 211.696C538.959 210.672 540.708 210.16 542.671 210.16C546.596 210.16 549.668 211.909 551.887 215.408C554.106 218.907 555.215 223.771 555.215 230C555.215 237.168 554.106 243.867 551.887 250.096C549.754 256.24 546.724 261.659 542.799 266.352C538.874 270.96 534.308 274.587 529.103 277.232C523.983 279.877 518.436 281.2 512.463 281.2ZM591.005 281.2C589.469 281.2 588.061 280.901 586.781 280.304C585.501 279.792 584.434 278.768 583.581 277.232C582.813 275.611 582.429 273.307 582.429 270.32C582.429 266.651 582.813 262.555 583.581 258.032C584.434 253.509 585.458 248.816 586.653 243.952C587.933 239.088 589.17 234.267 590.365 229.488C591.645 224.709 592.669 220.229 593.437 216.048C594.29 211.781 594.717 208.112 594.717 205.04C594.717 203.163 594.546 201.285 594.205 199.408C593.949 197.445 593.608 195.525 593.181 193.648C594.632 192.112 596.552 190.917 598.941 190.064C601.33 189.125 603.677 188.656 605.981 188.656C608.456 188.656 610.248 189.211 611.357 190.32C612.466 191.429 613.021 193.264 613.021 195.824C613.021 198.213 612.509 201.371 611.485 205.296C610.461 209.136 609.181 213.531 607.645 218.48C606.109 223.344 604.573 228.592 603.037 234.224C601.501 239.856 600.221 245.701 599.197 251.76C598.173 257.733 597.661 263.707 597.661 269.68L601.757 276.592C600.136 278.213 598.344 279.365 596.381 280.048C594.504 280.816 592.712 281.2 591.005 281.2ZM584.477 221.936C582.258 221.936 580.68 221.509 579.741 220.656C578.888 219.803 578.461 218.565 578.461 216.944C578.461 216.005 578.589 215.024 578.845 214C579.186 212.891 579.741 211.781 580.509 210.672C581.96 211.099 583.837 211.397 586.141 211.568C588.445 211.739 590.45 211.824 592.157 211.824C596.424 211.824 600.733 211.355 605.085 210.416C609.522 209.477 613.96 209.008 618.397 209.008C620.701 209.008 622.237 209.477 623.005 210.416C623.858 211.269 624.285 212.507 624.285 214.128C624.285 214.981 624.114 215.963 623.773 217.072C623.517 218.096 623.005 219.12 622.237 220.144C620.872 219.717 619.08 219.419 616.861 219.248C614.642 219.077 612.68 218.992 610.973 218.992C606.792 218.992 602.44 219.504 597.917 220.528C593.48 221.467 589 221.936 584.477 221.936ZM640.578 281.2C637.506 281.2 635.245 280.389 633.794 278.768C632.429 277.232 631.746 275.013 631.746 272.112C631.746 270.32 632.045 267.419 632.642 263.408C633.239 259.397 634.007 254.661 634.946 249.2C635.97 243.653 637.122 237.637 638.402 231.152C639.682 224.581 640.962 217.883 642.242 211.056C643.607 204.144 644.93 197.36 646.21 190.704L640.578 184.304C642.626 182.597 645.015 181.275 647.746 180.336C650.562 179.312 653.079 178.8 655.298 178.8C657.687 178.8 659.394 179.355 660.418 180.464C661.442 181.488 661.954 183.28 661.954 185.84C661.954 187.888 661.57 190.619 660.802 194.032C660.034 197.36 659.01 201.541 657.73 206.576C656.535 211.611 655.17 217.712 653.634 224.88L654.914 225.52C658.242 219.461 661.869 214.683 665.794 211.184C669.805 207.6 673.858 205.04 677.954 203.504C682.135 201.968 686.061 201.2 689.73 201.2C695.191 201.2 699.287 202.565 702.018 205.296C704.749 208.027 706.114 212.336 706.114 218.224C706.114 222.149 705.645 226.245 704.706 230.512C703.853 234.779 702.829 239.173 701.634 243.696C700.439 248.219 699.373 252.784 698.434 257.392C697.581 261.915 697.154 266.437 697.154 270.96C697.154 272.325 697.282 273.605 697.538 274.8C697.794 275.995 698.221 276.933 698.818 277.616C696.173 280.005 693.442 281.2 690.626 281.2C687.554 281.2 685.335 280.389 683.97 278.768C682.69 277.232 682.05 275.013 682.05 272.112C682.05 268.613 682.434 264.645 683.202 260.208C684.055 255.685 684.994 251.12 686.018 246.512C687.127 241.819 688.066 237.381 688.834 233.2C689.687 229.019 690.114 225.435 690.114 222.448C690.114 219.205 689.517 216.688 688.322 214.896C687.127 213.019 685.122 212.08 682.306 212.08C678.551 212.08 674.583 213.531 670.402 216.432C666.306 219.248 662.466 223.259 658.882 228.464C655.383 233.669 652.525 239.899 650.306 247.152C648.087 254.32 646.978 262.256 646.978 270.96C646.978 272.325 647.106 273.605 647.362 274.8C647.618 275.995 648.002 276.933 648.514 277.616C646.039 280.005 643.394 281.2 640.578 281.2ZM755.561 259.824C753.684 259.824 752.446 259.269 751.849 258.16C751.337 256.965 751.337 254.875 751.849 251.888L759.657 203.12C763.924 201.584 767.252 200.816 769.641 200.816C771.604 200.816 772.798 201.413 773.225 202.608C773.737 203.717 773.78 205.765 773.353 208.752L765.673 257.52C763.54 258.203 761.62 258.757 759.913 259.184C758.292 259.611 756.841 259.824 755.561 259.824ZM740.969 237.68C737.982 237.68 735.892 237.296 734.697 236.528C733.588 235.76 733.033 234.437 733.033 232.56C733.033 231.365 733.246 229.957 733.673 228.336C734.1 226.715 734.654 224.923 735.337 222.96H784.105C787.092 222.96 789.14 223.301 790.249 223.984C791.444 224.667 792.041 225.989 792.041 227.952C792.041 230.427 791.273 233.669 789.737 237.68H740.969Z" fill="white"/>
</svg>
