<svg width="865" height="393" viewBox="0 0 865 393" fill="none" xmlns="http://www.w3.org/2000/svg">
<path fill-rule="evenodd" clip-rule="evenodd" d="M453.957 0.249158C571.902 -3.98676 657.382 46.6504 733.603 86.4668C801.598 121.987 843.407 163.292 854.472 209.47C867.178 262.505 884.14 323.277 799.488 361.454C714.416 399.82 575.449 394.154 453.957 390.097C344.126 386.429 238.769 372.559 157.191 340.005C71.1617 305.675 -11.5033 260.251 1.32111 209.47C13.5807 160.926 139.983 140.42 216.531 105.037C296.876 67.8995 337.794 4.42109 453.957 0.249158Z" fill="#2EFFD9"/>
<path d="M230.276 281.2C220.633 281.2 212.868 279.792 206.98 276.976C201.177 274.075 198.276 270.064 198.276 264.944C198.276 263.067 198.745 261.317 199.684 259.696C200.708 257.989 202.073 256.624 203.78 255.6C206.425 260.805 210.009 264.816 214.532 267.632C219.14 270.363 224.132 271.728 229.508 271.728C236.846 271.728 242.734 270.448 247.172 267.888C251.609 265.328 253.827 261.659 253.827 256.88C253.827 254.491 252.932 252.4 251.14 250.608C249.433 248.816 247.214 247.323 244.484 246.128C241.838 244.848 238.212 243.355 233.604 241.648C227.289 239.344 222.169 237.168 218.244 235.12C214.404 233.072 211.076 230.341 208.26 226.928C205.444 223.429 204.036 219.12 204.036 214C204.036 208.453 205.913 203.504 209.668 199.152C213.508 194.715 218.841 191.259 225.668 188.784C232.58 186.309 240.516 185.072 249.476 185.072C254.681 185.072 259.332 185.627 263.428 186.736C267.609 187.76 270.852 189.211 273.156 191.088C275.545 192.965 276.74 195.141 276.74 197.616C276.74 201.2 275.545 203.973 273.156 205.936C270.852 207.813 267.78 208.752 263.94 208.752C260.014 208.752 256.729 207.6 254.084 205.296C251.438 202.907 249.433 199.451 248.068 194.928C239.449 195.952 232.708 198.043 227.844 201.2C222.98 204.272 220.548 207.941 220.548 212.208C220.548 214.427 221.401 216.389 223.108 218.096C224.814 219.717 226.948 221.125 229.508 222.32C232.068 223.429 235.694 224.88 240.388 226.672C246.617 228.891 251.737 231.024 255.748 233.072C259.758 235.12 263.172 237.851 265.988 241.264C268.889 244.677 270.34 248.901 270.34 253.936C270.34 258.885 268.761 263.451 265.604 267.632C262.532 271.728 257.966 275.013 251.908 277.488C245.934 279.963 238.724 281.2 230.276 281.2ZM302.829 281.2C299.842 281.2 297.623 280.432 296.173 278.896C294.807 277.36 294.125 275.099 294.125 272.112C294.125 267.845 295.319 259.611 297.708 247.408C300.183 235.205 302.701 224.069 305.261 214L299.501 207.6C301.549 205.808 303.938 204.357 306.669 203.248C309.485 202.139 312.002 201.584 314.221 201.584C316.781 201.584 318.573 202.096 319.597 203.12C320.621 204.144 321.133 205.979 321.133 208.624C321.133 210.843 320.749 213.36 319.981 216.176C319.298 218.992 318.359 221.595 317.165 223.984L318.444 224.624C322.797 216.347 327.533 210.373 332.653 206.704C337.858 203.035 343.618 201.2 349.933 201.2C355.223 201.2 359.106 202.651 361.581 205.552C364.055 208.368 365.293 212.293 365.293 217.328C365.293 219.461 364.994 221.68 364.397 223.984L365.677 224.624C370.199 216.347 375.106 210.373 380.397 206.704C385.687 203.035 391.533 201.2 397.933 201.2C403.479 201.2 407.618 202.608 410.349 205.424C413.079 208.155 414.445 212.421 414.445 218.224C414.445 221.637 414.061 225.179 413.293 228.848C412.61 232.517 411.586 237.125 410.221 242.672C408.599 249.157 407.405 254.491 406.637 258.672C405.869 262.768 405.485 266.864 405.485 270.96C405.485 274.117 405.997 276.336 407.021 277.616C404.546 280.005 401.901 281.2 399.085 281.2C396.098 281.2 393.879 280.389 392.429 278.768C390.978 277.232 390.253 274.928 390.253 271.856C390.253 268.613 390.594 264.944 391.277 260.848C392.045 256.667 393.154 251.461 394.605 245.232C395.97 239.173 396.951 234.48 397.549 231.152C398.146 227.824 398.445 224.923 398.445 222.448C398.445 219.035 397.805 216.475 396.525 214.768C395.33 212.976 393.325 212.08 390.509 212.08C385.645 212.08 380.61 214.64 375.405 219.76C370.285 224.88 365.975 231.963 362.477 241.008C359.063 249.968 357.357 259.952 357.357 270.96C357.357 274.203 357.911 276.421 359.021 277.616C356.546 280.005 353.858 281.2 350.957 281.2C347.97 281.2 345.751 280.389 344.301 278.768C342.935 277.232 342.253 274.928 342.253 271.856C342.253 268.613 342.594 264.944 343.277 260.848C344.045 256.667 345.154 251.461 346.604 245.232C347.97 239.173 348.951 234.48 349.549 231.152C350.146 227.824 350.445 224.923 350.445 222.448C350.445 215.536 347.799 212.08 342.509 212.08C337.645 212.08 332.61 214.64 327.405 219.76C322.285 224.88 317.975 231.963 314.477 241.008C311.063 249.968 309.357 259.952 309.357 270.96C309.357 274.117 309.869 276.336 310.893 277.616C308.418 280.005 305.73 281.2 302.829 281.2ZM464.901 281.2C458.757 281.2 453.338 279.835 448.645 277.104C444.037 274.288 440.453 270.363 437.893 265.328C435.418 260.208 434.181 254.277 434.181 247.536C434.181 238.491 436.058 230.469 439.812 223.472C443.653 216.475 448.986 211.013 455.812 207.088C462.639 203.163 470.362 201.2 478.981 201.2C482.565 201.2 485.85 201.541 488.837 202.224C489.775 203.589 490.33 205.595 490.501 208.24C481.967 208.24 474.671 209.947 468.613 213.36C462.554 216.773 457.946 221.552 454.789 227.696C451.631 233.755 450.053 240.667 450.053 248.432C450.053 256.027 451.461 261.957 454.277 266.224C457.093 270.491 461.103 272.624 466.309 272.624C471.343 272.624 475.866 271.216 479.877 268.4C483.973 265.584 487.301 261.573 489.861 256.368C492.506 251.163 494.17 245.104 494.853 238.192C491.354 235.973 488.794 233.541 487.173 230.896C485.637 228.251 484.869 225.136 484.869 221.552C484.869 219.419 485.295 217.499 486.149 215.792C487.087 214 488.325 212.635 489.861 211.696C491.397 210.672 493.146 210.16 495.109 210.16C499.034 210.16 502.106 211.909 504.325 215.408C506.543 218.907 507.653 223.771 507.653 230C507.653 239.387 505.733 248.005 501.893 255.856C498.138 263.621 492.975 269.808 486.405 274.416C479.919 278.939 472.751 281.2 464.901 281.2ZM557.651 281.2C551.507 281.2 546.088 279.835 541.395 277.104C536.787 274.288 533.203 270.363 530.643 265.328C528.168 260.208 526.931 254.277 526.931 247.536C526.931 238.491 528.808 230.469 532.562 223.472C536.403 216.475 541.736 211.013 548.562 207.088C555.389 203.163 563.112 201.2 571.731 201.2C575.315 201.2 578.6 201.541 581.587 202.224C582.525 203.589 583.08 205.595 583.251 208.24C574.717 208.24 567.421 209.947 561.363 213.36C555.304 216.773 550.696 221.552 547.539 227.696C544.381 233.755 542.803 240.667 542.803 248.432C542.803 256.027 544.211 261.957 547.027 266.224C549.843 270.491 553.853 272.624 559.059 272.624C564.093 272.624 568.616 271.216 572.627 268.4C576.723 265.584 580.051 261.573 582.611 256.368C585.256 251.163 586.92 245.104 587.603 238.192C584.104 235.973 581.544 233.541 579.923 230.896C578.387 228.251 577.619 225.136 577.619 221.552C577.619 219.419 578.045 217.499 578.899 215.792C579.837 214 581.075 212.635 582.611 211.696C584.147 210.672 585.896 210.16 587.859 210.16C591.784 210.16 594.856 211.909 597.075 215.408C599.293 218.907 600.403 223.771 600.403 230C600.403 239.387 598.483 248.005 594.643 255.856C590.888 263.621 585.725 269.808 579.155 274.416C572.669 278.939 565.501 281.2 557.651 281.2ZM636.193 281.2C633.547 281.2 631.457 280.432 629.921 278.896C628.385 277.36 627.617 274.501 627.617 270.32C627.617 266.139 628.171 261.36 629.281 255.984C630.39 250.608 632.011 243.696 634.145 235.248C636.107 227.568 637.558 221.467 638.497 216.944C639.435 212.336 639.905 208.368 639.905 205.04C639.905 201.968 639.478 198.512 638.625 194.672L638.369 193.648C639.819 192.112 641.739 190.917 644.129 190.064C646.518 189.125 648.865 188.656 651.169 188.656C653.643 188.656 655.435 189.211 656.545 190.32C657.654 191.429 658.209 193.264 658.209 195.824C658.209 197.872 657.782 200.517 656.929 203.76C656.161 207.003 654.881 211.568 653.089 217.456C649.846 228.208 647.286 237.595 645.409 245.616C643.617 253.552 642.763 261.573 642.849 269.68L646.944 276.592C645.409 278.128 643.659 279.28 641.697 280.048C639.819 280.816 637.985 281.2 636.193 281.2ZM629.665 221.936C627.531 221.936 625.995 221.552 625.057 220.784C624.118 219.931 623.649 218.651 623.649 216.944C623.649 214.725 624.331 212.635 625.697 210.672C628.086 211.44 631.969 211.824 637.345 211.824C640.587 211.824 644.854 211.355 650.145 210.416C652.363 210.075 654.667 209.776 657.057 209.52C659.446 209.179 661.622 209.008 663.585 209.008C665.803 209.008 667.339 209.435 668.193 210.288C669.046 211.141 669.473 212.421 669.473 214.128C669.473 216.347 668.79 218.352 667.425 220.144C666.145 219.803 664.395 219.547 662.177 219.376C660.043 219.12 658.038 218.992 656.161 218.992C654.369 218.992 652.321 219.163 650.017 219.504C647.713 219.76 645.494 220.059 643.361 220.4C637.217 221.424 632.651 221.936 629.665 221.936ZM685.766 281.2C682.779 281.2 680.56 280.432 679.11 278.896C677.659 277.36 676.934 275.099 676.934 272.112C676.934 269.125 677.659 263.536 679.11 255.344C680.56 247.067 682.992 234.096 686.406 216.432C687.259 212.165 688.112 207.899 688.966 203.632C689.819 199.28 690.63 194.971 691.398 190.704L685.766 184.304C687.728 182.597 690.075 181.275 692.806 180.336C695.622 179.312 698.182 178.8 700.486 178.8C702.875 178.8 704.582 179.355 705.606 180.464C706.63 181.488 707.142 183.28 707.142 185.84C707.142 187.461 706.886 189.595 706.374 192.24C705.862 194.8 705.008 198.469 703.814 203.248C701.51 212.549 699.846 219.76 698.822 224.88L700.102 225.52C704.795 217.072 710.214 210.928 716.358 207.088C722.502 203.163 728.688 201.2 734.918 201.2C740.379 201.2 744.475 202.608 747.206 205.424C749.936 208.155 751.302 212.421 751.302 218.224C751.302 221.637 750.918 225.179 750.15 228.848C749.467 232.517 748.443 237.125 747.078 242.672C745.456 249.157 744.262 254.491 743.494 258.672C742.726 262.768 742.342 266.864 742.342 270.96C742.342 274.203 742.896 276.421 744.006 277.616C741.36 280.005 738.63 281.2 735.814 281.2C732.827 281.2 730.651 280.432 729.286 278.896C727.92 277.36 727.238 275.099 727.238 272.112C727.238 268.869 727.579 265.243 728.262 261.232C729.03 257.136 730.096 251.845 731.462 245.36C732.742 239.984 733.68 235.504 734.278 231.92C734.96 228.251 735.302 225.093 735.302 222.448C735.302 215.536 732.699 212.08 727.494 212.08C722.288 212.08 716.912 214.64 711.366 219.76C705.904 224.88 701.339 231.963 697.67 241.008C694 249.968 692.166 259.952 692.166 270.96C692.166 274.117 692.678 276.336 693.702 277.616C691.227 280.005 688.582 281.2 685.766 281.2Z" fill="white"/>
</svg>
